<svg xmlns="http://www.w3.org/2000/svg" xml:space="preserve" width="160px" height="50px" version="1.1" style="shape-rendering:geometricPrecision; text-rendering:geometricPrecision; image-rendering:optimizeQuality; fill-rule:evenodd; clip-rule:evenodd" viewBox="0 0 160 49.94" xmlns:xlink="http://www.w3.org/1999/xlink" xmlns:xodm="http://www.corel.com/coreldraw/odm/2003">
 <defs>
  <style>
   
    .fil1 {fill:none}
    .fil0 {fill:white}
    .fil2 {fill:white;fill-rule:nonzero}
   
  </style>
   <clipPath id="id0">
    <path d="M0 49.94l32.96 0 0 -49.94 -32.96 0 0 49.94z"></path>
   </clipPath>
 </defs>
 <g id="Слой_x0020_1">
  <metadata id="CorelCorpID_0Corel-Layer"></metadata>
  <g>
  </g>
  <g style="clip-path:url(#id0)">
   <g>
    <path class="fil0" d="M15.88 1.02c-0.55,0.1 -1.15,0.42 -1.51,0.81 -0.42,0.45 -0.69,1.08 -0.74,1.73 -0.08,0.96 0.47,2.03 1.28,2.52 0.15,0.09 0.26,0.18 0.24,0.2 -0.02,0.02 -1.24,0.61 -2.72,1.31 -1.47,0.71 -2.69,1.29 -2.7,1.3 0,0 0.07,0.37 0.18,0.8 0.11,0.43 0.19,0.79 0.18,0.8 0,0 -0.25,0.13 -0.55,0.26 -2.9,1.33 -5.46,3.65 -7.16,6.49 -1.26,2.12 -2.05,4.5 -2.32,7.07 -0.08,0.77 -0.07,2.82 0.02,3.59 0.33,2.71 1.15,5.04 2.57,7.29 0.18,0.29 0.41,0.67 0.49,0.84 0.14,0.31 0.15,0.33 0.11,0.54 -0.07,0.39 -0.17,0.73 -0.48,1.71 -0.4,1.26 -0.48,1.63 -0.48,2.22 -0.01,0.89 0.29,1.52 0.92,1.94 0.54,0.36 1.02,0.5 1.81,0.5l0.5 0 0.25 0.46c0.28,0.51 0.72,1.11 1.02,1.39 0.26,0.24 0.82,0.62 1.21,0.8 0.59,0.28 0.86,0.31 2.74,0.35 0.92,0.02 1.81,0.06 2,0.08 0.41,0.06 0.81,0.2 1.17,0.41 0.76,0.43 1.1,0.76 1.88,1.8 0.45,0.59 0.54,0.7 0.64,0.7 0.11,0 0.17,-0.07 0.63,-0.67 0.8,-1.07 1.22,-1.47 1.99,-1.87 0.72,-0.38 0.93,-0.41 3.08,-0.45 1.51,-0.03 1.76,-0.05 2.09,-0.12 0.39,-0.09 0.94,-0.35 1.39,-0.65 0.54,-0.37 1.14,-1.09 1.57,-1.91l0.17 -0.33 0.49 0c1.53,0 2.49,-0.69 2.7,-1.95 0.12,-0.66 0,-1.29 -0.5,-2.87 -0.36,-1.13 -0.44,-1.45 -0.47,-1.93l-0.02 -0.4 0.23 -0.34c1.28,-1.88 2.23,-4.31 2.61,-6.64 0.18,-1.08 0.21,-1.52 0.21,-2.85 0,-1.37 -0.07,-2.1 -0.29,-3.23 -0.77,-3.91 -2.82,-7.35 -5.89,-9.87 -0.93,-0.76 -2.3,-1.62 -3.37,-2.11 -0.29,-0.13 -0.55,-0.26 -0.57,-0.28 -0.02,-0.02 0.07,-0.38 0.19,-0.8 0.12,-0.42 0.21,-0.78 0.2,-0.79 0,0 -1.22,-0.59 -2.71,-1.3 -1.47,-0.7 -2.7,-1.29 -2.71,-1.31 -0.02,-0.02 0.09,-0.11 0.24,-0.2 0.39,-0.23 0.79,-0.69 1,-1.13 0.22,-0.47 0.28,-0.73 0.27,-1.25 0,-0.37 -0.02,-0.5 -0.12,-0.8 -0.36,-1.09 -1.3,-1.83 -2.42,-1.89 -0.19,0 -0.44,0 -0.55,0.02l0.01 0.01zm0.72 1.06c0.85,0.17 1.43,0.97 1.34,1.85 -0.03,0.33 -0.26,0.8 -0.5,1.03 -0.83,0.79 -2.11,0.54 -2.61,-0.5 -0.15,-0.31 -0.16,-0.34 -0.16,-0.72 0,-0.39 0.01,-0.43 0.13,-0.69 0.23,-0.5 0.67,-0.86 1.18,-0.96 0.25,-0.05 0.36,-0.05 0.62,0l0 -0.01zm2.47 5.96c1.49,0.71 2.72,1.32 2.75,1.33 0.02,0.02 -0.12,0.59 -0.34,1.37 -0.09,0.31 -0.23,0.82 -0.4,1.41l0 0c-0.23,0.82 -0.52,1.81 -0.77,2.7l-0.78 2.79 -6.68 0 -0.06 -0.22c-0.04,-0.12 -0.38,-1.44 -0.75,-2.94 -0.22,-0.91 -0.48,-1.91 -0.68,-2.7l0 0c0,0 0,0 0,0l0 0c0,0 0,0 0,0 -0.13,-0.51 -0.24,-0.93 -0.3,-1.18 -0.17,-0.65 -0.3,-1.19 -0.29,-1.2 0.04,-0.04 5.5,-2.64 5.55,-2.64 0.03,0 1.28,0.59 2.77,1.3l-0.02 -0.02zm-8.75 3.18c0,0 0.09,0.38 0.2,0.81 0.11,0.44 0.32,1.24 0.46,1.79 0.07,0.26 0.13,0.5 0.18,0.69l0 0c0,0 0,0 0,0 0.05,0.21 0.09,0.36 0.1,0.38 0.02,0.06 -0.06,0.11 -0.32,0.25 -3.39,1.75 -5.75,5.11 -6.39,9.09 -0.09,0.57 -0.12,2.36 -0.06,3 0.36,3.47 2.06,6.54 4.79,8.61 0.75,0.56 1.67,1.09 2.5,1.44 0.18,0.08 0.33,0.15 0.33,0.17 0.01,0.05 -0.5,0.21 -1.02,0.32 -0.35,0.08 -0.5,0.08 -0.97,0.07 -0.82,-0.03 -1.82,-0.25 -1.76,-0.39 0.01,-0.03 0.14,-0.25 0.29,-0.49 0.15,-0.23 0.27,-0.45 0.27,-0.46 0,-0.02 -0.09,-0.05 -0.19,-0.07 -0.42,-0.06 -1.89,-0.38 -2.58,-0.54 -0.85,-0.22 -1.24,-0.33 -2.12,-0.62l-0.64 -0.21 -0.34 -0.56c-1.28,-2.1 -2.1,-4.63 -2.31,-7.08 -0.05,-0.65 -0.05,-2.16 0,-2.76 0.41,-4.64 2.62,-8.71 6.22,-11.5 0.74,-0.57 1.5,-1.05 2.43,-1.51 0.84,-0.42 0.93,-0.47 0.93,-0.42l0 -0.01zm12.91 0.42c2.52,1.25 4.59,3.14 6.17,5.6 1.28,1.99 2.1,4.28 2.43,6.79 0.09,0.7 0.13,2.48 0.07,3.25 -0.21,2.52 -0.95,4.89 -2.21,7.03l-0.04 0.07c-0.29,0.49 -0.4,0.67 -0.56,0.78 -0.1,0.07 -0.22,0.1 -0.41,0.16l-0.03 0c-1.49,0.48 -3.52,0.98 -4.5,1.11 -0.11,0.02 -0.2,0.05 -0.2,0.07 0,0.02 0.08,0.16 0.18,0.3 0.19,0.27 0.4,0.63 0.4,0.67 0,0.04 -0.5,0.19 -0.95,0.28 -0.55,0.11 -1.41,0.11 -1.9,0 -0.43,-0.1 -1.1,-0.34 -1.05,-0.39 0.02,-0.02 0.14,-0.07 0.26,-0.12 0.46,-0.2 1.28,-0.64 1.73,-0.93 2.97,-1.92 4.89,-4.95 5.44,-8.56 0.1,-0.67 0.13,-2.36 0.04,-3.11 -0.21,-1.97 -0.85,-3.76 -1.91,-5.39 -0.65,-1 -1.41,-1.88 -2.32,-2.65 -0.53,-0.46 -1.48,-1.09 -2.14,-1.45 -0.33,-0.17 -0.54,-0.31 -0.53,-0.34 0,-0.01 0.02,-0.05 0.03,-0.12l0 0c0.03,-0.11 0.08,-0.28 0.13,-0.46 0.36,-1.28 0.82,-2.87 0.87,-3 0.03,-0.08 0.12,-0.05 0.99,0.39l0.01 0.02zm-1.79 4.17c2.65,1.37 4.71,3.92 5.59,6.9 0.69,2.36 0.61,4.92 -0.22,7.29 -0.18,0.51 -0.6,1.4 -0.92,1.94 -1.08,1.84 -2.72,3.39 -4.58,4.32 -0.64,0.32 -1.31,0.61 -1.43,0.61 -0.04,0 -0.22,-0.14 -0.4,-0.32l-0.33 -0.32 0.43 -0.16c2.02,-0.74 3.3,-2.27 3.75,-4.51 0.13,-0.62 0.15,-1.5 0.06,-2.06 -0.26,-1.62 -1.13,-2.94 -3.06,-4.7 -0.31,-0.29 -0.82,-0.76 -1.12,-1.06l-0.55 -0.53 0 -1.19c0,-0.65 0.01,-1.71 0.03,-2.33l0.02 -1.15 1.42 0 0.08 -0.29c0.03,-0.09 0.1,-0.35 0.19,-0.67l0 0c0,0 0,0 0,0l0 0c0,0 0.2,-0.72 0.2,-0.72 0.12,-0.42 0.23,-0.81 0.29,-1.02l0 0c0,0 0,0 0,0 0.02,-0.09 0.04,-0.14 0.04,-0.15 0.01,-0.04 0.03,-0.07 0.05,-0.07 0.02,0 0.21,0.1 0.44,0.22l0.02 -0.03zm-9.93 0.09c0.05,0.18 0.43,1.71 0.62,2.46l0.04 0.16 1.98 0 0 2.76c0,1.59 0.02,2.92 0.04,3.13 0.04,0.33 0.14,6.36 0.1,6.39 0,0 -0.13,-0.08 -0.28,-0.19 -0.41,-0.31 -0.62,-0.39 -1.18,-0.45 -0.98,-0.1 -1.54,0 -1.92,0.35 -0.27,0.24 -0.37,0.46 -0.37,0.8 0,0.61 0.44,1.07 1.25,1.31 0.17,0.05 0.34,0.12 0.4,0.16 0.06,0.04 0.19,0.26 0.32,0.54 0.38,0.8 0.91,1.54 1.41,1.96 0.13,0.11 0.24,0.22 0.25,0.24 0.03,0.09 -0.6,0.86 -0.96,1.2l-0.26 0.24 -0.28 -0.1c-0.15,-0.05 -0.5,-0.19 -0.75,-0.3 -3.5,-1.53 -6.02,-4.78 -6.66,-8.64 -0.5,-2.98 0.19,-6.1 1.92,-8.57 0.76,-1.1 1.87,-2.19 2.96,-2.93 0.42,-0.28 1.19,-0.73 1.27,-0.73 0.02,0 0.07,0.1 0.1,0.22l0 -0.01zm6.49 2.77l0 0.15 -3.14 0 0 -0.3 3.14 0 0 0.15 0 0zm-2.23 7.14c0.8,0.51 1.74,1.23 2.03,1.56l0.11 0.12 -0.03 2.6c-0.02,1.83 -0.05,2.62 -0.08,2.65 -0.03,0.03 -0.24,0.05 -0.57,0.05 -0.43,0 -0.57,-0.02 -0.76,-0.09 -0.32,-0.12 -0.67,-0.37 -1.1,-0.79l-0.36 -0.35 -0.03 -2.29c-0.02,-1.26 -0.03,-2.65 -0.03,-3.12l0 -0.84c0,0 0.19,0.11 0.19,0.11 0.11,0.06 0.39,0.24 0.63,0.39l0 0zm3 2.63c0.41,0.58 0.63,1.22 0.67,1.87 0.03,0.48 -0.03,0.85 -0.2,1.32 -0.1,0.28 -0.16,0.36 -0.37,0.56 -0.14,0.13 -0.27,0.23 -0.29,0.23 -0.03,0 -0.03,-0.52 -0.02,-1.5 0.02,-0.82 0.03,-1.77 0.03,-2.1 0,-0.33 0,-0.6 0.02,-0.6 0.02,0 0.09,0.1 0.17,0.22l-0.01 0zm-3.73 7.56c0.3,0.14 0.89,0.3 1.25,0.36 0.46,0.07 1.46,0.1 1.78,0.06l0.29 -0.04 0.43 0.47c1.13,1.22 2.27,1.74 3.84,1.74 0.54,0 0.72,-0.02 1.14,-0.11 1.04,-0.23 1.46,-0.46 1.53,-0.85 0.02,-0.12 -0.04,-0.31 -0.18,-0.58 0,-0.02 0.05,-0.04 0.14,-0.06 0.35,-0.06 2.35,-0.59 2.93,-0.76 0.35,-0.11 0.64,-0.2 0.65,-0.2 0,0 0.03,0.13 0.04,0.3 0.05,0.44 0.2,1.06 0.54,2.12 0.38,1.2 0.49,1.71 0.46,2.21 -0.04,0.76 -0.39,1.21 -1.15,1.46 -0.17,0.06 -0.42,0.08 -1.02,0.1l-0.8 0.03 -0.24 0.48c-0.6,1.18 -1.08,1.7 -2.01,2.18 -0.5,0.26 -0.67,0.28 -2.55,0.32 -2.24,0.05 -2.54,0.1 -3.42,0.56 -0.74,0.39 -1.27,0.86 -1.9,1.68 -0.18,0.24 -0.34,0.44 -0.36,0.44 -0.01,0 -0.17,-0.2 -0.36,-0.43 -0.64,-0.84 -1.18,-1.32 -2.03,-1.75 -0.76,-0.39 -1.13,-0.45 -3.31,-0.49 -1.86,-0.04 -2.02,-0.06 -2.54,-0.33 -0.91,-0.47 -1.43,-1.02 -2.01,-2.18l-0.23 -0.47 -0.81 -0.03c-0.66,-0.02 -0.85,-0.04 -1.06,-0.11 -0.51,-0.18 -0.79,-0.42 -0.99,-0.86 -0.1,-0.21 -0.11,-0.28 -0.1,-0.72 0,-0.31 0.03,-0.6 0.07,-0.78 0.08,-0.33 0.76,-2.55 0.82,-2.66 0.02,-0.04 0.05,-0.25 0.08,-0.46 0.04,-0.39 0.08,-0.55 0.16,-0.55 0.02,0 0.22,0.06 0.44,0.13 0.55,0.17 1.9,0.52 2.57,0.66 0.31,0.06 0.58,0.13 0.59,0.14 0.02,0.02 -0.02,0.13 -0.08,0.25 -0.14,0.28 -0.12,0.46 0.1,0.67 0.37,0.38 1.44,0.65 2.54,0.65 1.2,0 2.16,-0.33 3.05,-1.02 0.41,-0.32 1.02,-0.97 1.29,-1.37 0.1,-0.16 0.19,-0.27 0.19,-0.27 0,0 0.11,0.05 0.24,0.1l-0.01 -0.03zm3.72 -26.54c-0.26,0.05 -0.41,0.11 -0.56,0.28 -0.31,0.33 -0.37,0.66 -0.35,2.08 0.02,1 0.02,1.1 0.11,1.33 0.17,0.45 0.55,0.69 1.1,0.69 0.39,0 0.63,-0.09 0.85,-0.31 0.32,-0.34 0.34,-0.45 0.34,-1.9 0,-1.21 0,-1.26 -0.1,-1.49 -0.21,-0.53 -0.72,-0.78 -1.4,-0.67l0.01 -0.01zm0.45 1c0.05,0.06 0.06,0.3 0.06,1.18 0,1.18 0,1.24 -0.21,1.24 -0.21,0 -0.21,-0.06 -0.21,-1.24 0,-1.19 0,-1.25 0.21,-1.25 0.05,0 0.12,0.03 0.15,0.07zm-6.86 1.24c0,-1.13 0,-2.1 0.01,-2.16l0.02 -0.09 1.17 0c0,0 1.17,0.02 1.17,0.02l0 2.15c0,0 0.02,2.15 0.02,2.15l-0.47 0c-0.4,0 -0.48,-0.01 -0.5,-0.07 -0.02,-0.04 -0.02,-0.77 -0.02,-1.63l0 -1.6c0,0 -0.07,-0.05 -0.21,-0.05l-0.21 0 0 3.35 -0.48 0c0,0 -0.49,-0.03 -0.49,-0.03l0 -2.05 -0.01 0.01zm3.16 -0.39l0 0c0,0 -0.09,0.39 -0.09,0.39 -0.31,1.38 -0.45,2.04 -0.41,2.06 0.02,0.01 0.24,0.01 0.48,0l0.43 0c0,0 0.05,-0.28 0.05,-0.28l0.06 -0.26 0.35 0c0.28,0 0.35,0.01 0.35,0.06 0,0.03 0.02,0.16 0.05,0.28l0.05 0.21 0.47 0c0.38,0 0.47,-0.01 0.47,-0.06 0,-0.11 -0.93,-4.15 -0.97,-4.22 -0.02,-0.02 -0.21,-0.04 -0.43,-0.04 -0.38,0 -0.41,0 -0.44,0.09 -0.01,0.05 -0.19,0.81 -0.4,1.76l0 0c0,0 0,0 0,0l-0.02 0.01zm0.95 0.6l0.08 0.46 -0.37 0 0.03 -0.16c0,0 0.01,-0.09 0.03,-0.16 0.02,-0.08 0.03,-0.2 0.05,-0.3 0.02,-0.17 0.06,-0.31 0.07,-0.31 0.01,0 0.06,0.21 0.11,0.47l0 0zm-8.41 0.82c0,-0.06 0.05,-0.14 0.12,-0.19 0.14,-0.11 0.15,-0.11 0.21,0.02 0.12,0.26 -0.01,0.53 -0.31,0.66 -0.2,0.09 -0.36,0.07 -0.52,-0.08 -0.1,-0.09 -0.1,-0.12 0.05,-0.22 0.1,-0.08 0.14,-0.08 0.23,-0.04 0.13,0.06 0.23,0 0.23,-0.15l-0.01 0zm0.56 0.26c-0.09,0.06 -0.17,0.11 -0.18,0.12 -0.02,0.02 0.15,0.74 0.23,0.96 0.03,0.09 0.04,0.16 0.02,0.16 -0.02,0 -0.15,-0.2 -0.31,-0.45l-0.28 -0.44 -0.2 0.13c-0.11,0.07 -0.22,0.15 -0.24,0.18 -0.03,0.03 0.15,0.35 0.63,1.1 0.36,0.57 0.68,1.06 0.7,1.07 0.05,0.06 0.41,-0.2 0.41,-0.28 0,-0.07 -0.11,-0.57 -0.23,-1.03 -0.01,-0.05 0.11,0.12 0.27,0.37 0.16,0.25 0.31,0.46 0.34,0.46 0.1,0 0.46,-0.28 0.44,-0.34 -0.03,-0.12 -1.32,-2.12 -1.37,-2.12 -0.02,0 -0.12,0.05 -0.21,0.11l-0.02 0zm-1.85 1.41c0,0 0.05,-0.08 0.11,-0.13l0.03 -0.03c0.1,-0.09 0.19,-0.17 0.2,-0.17 0.02,0 1.56,1.78 1.63,1.89 0.03,0.04 0,0.11 -0.14,0.25 -0.1,0.11 -0.21,0.19 -0.23,0.19 -0.03,0 -0.19,-0.17 -0.38,-0.38 -0.18,-0.21 -0.33,-0.37 -0.34,-0.36 0,0 0.08,0.24 0.19,0.52l0.2 0.51 -0.18 0.18c-0.11,0.11 -0.19,0.17 -0.22,0.14 -0.93,-1.08 -1.62,-1.89 -1.62,-1.92 0,-0.05 0.34,-0.39 0.4,-0.39 0.03,0 0.19,0.17 0.37,0.38 0.18,0.21 0.33,0.38 0.34,0.37 0,0 -0.07,-0.2 -0.17,-0.44l-0.04 -0.09c-0.14,-0.33 -0.19,-0.44 -0.16,-0.52l0.01 0zm-1.32 1.26c-0.1,0.12 -0.15,0.19 -0.16,0.26 -0.01,0.07 0.02,0.15 0.1,0.32l0.03 0.07c0.12,0.25 0.14,0.35 0.1,0.31 -0.02,-0.01 -0.05,-0.04 -0.09,-0.08 -0.06,-0.05 -0.13,-0.11 -0.19,-0.17l-0.21 -0.18 -0.19 0.22c-0.11,0.12 -0.18,0.24 -0.17,0.26 0.01,0.02 0.44,0.41 0.96,0.87l0.94 0.83 0.2 -0.23 0.2 -0.22 -0.32 -0.31c-0.18,-0.17 -0.31,-0.31 -0.3,-0.33 0.01,-0.02 0.22,0.05 0.45,0.15l0.42 0.17 0.15 -0.18c0.2,-0.23 0.23,-0.3 0.19,-0.34 -0.02,-0.02 -0.36,-0.17 -0.76,-0.34l-0.72 -0.31 -0.18 -0.48c-0.1,-0.26 -0.19,-0.49 -0.21,-0.5 -0.01,-0.02 -0.09,0.05 -0.17,0.14l-0.05 0.06 -0.02 0.01zm-1.67 2.22c0.09,-0.22 0.3,-0.45 0.45,-0.5 0.07,-0.02 0.19,-0.03 0.25,-0.02 0.17,0.03 0.48,0.17 0.48,0.21 0,0.02 -0.07,0.14 -0.15,0.28l-0.14 0.24 -0.12 -0.07c-0.14,-0.07 -0.26,-0.02 -0.22,0.09 0.01,0.03 0.24,0.2 0.5,0.37 0.44,0.28 0.69,0.4 0.73,0.36l0 0c0.06,-0.06 0.05,-0.08 -0.05,-0.18 -0.06,-0.06 -0.11,-0.12 -0.11,-0.13 0,-0.06 0.27,-0.48 0.31,-0.48 0.08,0 0.38,0.34 0.43,0.49 0.03,0.08 0.04,0.21 0.02,0.29 -0.04,0.2 -0.25,0.52 -0.41,0.6 -0.17,0.09 -0.43,0.09 -0.62,0 -0.38,-0.2 -1.2,-0.77 -1.29,-0.9 -0.14,-0.18 -0.17,-0.45 -0.09,-0.66l0.03 0.01zm-0.5 0.9c-0.1,0.12 -0.22,0.43 -0.2,0.48 0,0.03 0.19,0.14 0.39,0.25 0.21,0.11 0.38,0.22 0.38,0.24 0,0.02 -0.02,0.08 -0.04,0.12 -0.04,0.08 -0.07,0.07 -0.48,-0.15l-0.43 -0.23 -0.13 0.26c-0.11,0.22 -0.12,0.26 -0.07,0.3 0.07,0.07 2.1,1.17 2.15,1.17 0.04,0 0.27,-0.42 0.27,-0.51 0,-0.02 -0.19,-0.14 -0.41,-0.26 -0.42,-0.22 -0.43,-0.23 -0.39,-0.36 0.04,-0.09 0.07,-0.08 0.52,0.14 0.22,0.11 0.41,0.21 0.43,0.21 0.02,0 0.27,-0.47 0.27,-0.52 0,-0.01 -2.03,-1.13 -2.19,-1.21 -0.01,0 -0.05,0.01 -0.07,0.04l0 0.03zm-1.15 2.73c0,-0.06 0.02,-0.13 0.06,-0.22l0.02 -0.04c0.06,-0.15 0.07,-0.16 0.2,-0.14 0.07,0.01 0.65,0.08 1.29,0.14l0.25 0.03 0 0c0.62,0.06 0.83,0.08 0.87,0.17 0.02,0.04 0,0.1 -0.03,0.19 0,0.02 -0.02,0.05 -0.03,0.07 -0.04,0.11 -0.06,0.17 -0.1,0.19 -0.03,0.02 -0.08,0.02 -0.16,0.02 -0.18,0 -0.18,0 -0.24,0.19 -0.06,0.17 -0.06,0.19 0.01,0.23l0.03 0.02c0.09,0.06 0.14,0.09 0.15,0.13 0.02,0.04 0,0.1 -0.04,0.22l0 0.03c-0.05,0.14 -0.12,0.4 -0.15,0.59l-0.07 0.34 -0.34 0.07 -0.35 0.06 0.3 0.16c0.16,0.08 0.31,0.17 0.31,0.19 0.02,0.05 -0.06,0.58 -0.1,0.61 -0.02,0.01 -0.04,0.16 -0.05,0.32l0 0.29c0,0 -0.17,0.04 -0.17,0.04 -0.15,0.04 -0.16,0.04 -0.16,0.24 0,0.2 0,0.2 0.16,0.24l0.15 0.04 0 0.29c0,0.27 0,0.3 -0.08,0.28 -0.2,-0.03 -2.33,-0.57 -2.38,-0.6 -0.08,-0.05 -0.11,-0.48 -0.03,-0.54 0.03,-0.03 0.59,-0.17 1.24,-0.31 0.65,-0.15 1.19,-0.29 1.19,-0.31 0,-0.02 -0.23,-0.19 -0.52,-0.37l-0.54 -0.33 -0.64 0.14c-0.35,0.08 -0.65,0.14 -0.65,0.13 -0.02,-0.02 0.07,-0.57 0.1,-0.6 0.01,-0.01 0.16,-0.04 0.32,-0.07l0.3 -0.05 -0.28 -0.15c-0.17,-0.09 -0.28,-0.17 -0.28,-0.22 0,-0.09 0.08,-0.51 0.1,-0.54 0.01,0 0.27,0.14 0.58,0.33l0.56 0.35 0.65 -0.15c0.36,-0.08 0.65,-0.15 0.65,-0.16 0,0 -0.45,-0.32 -1.04,-0.7l-0.14 -0.09c-0.71,-0.46 -0.91,-0.59 -0.92,-0.74l0 -0.01zm1.64 0.49c0.07,-0.04 0.04,-0.19 -0.03,-0.19 -0.04,0 -0.14,-0.01 -0.23,-0.03 -0.09,-0.02 -0.16,-0.02 -0.16,0 0,0.04 0.38,0.24 0.42,0.22l0 0zm-0.96 3.67c0.3,0.07 0.34,0.06 0.34,-0.03 0,-0.11 -0.03,-0.12 -0.31,-0.07l-0.25 0.05 0.22 0.05 0 0zm-0.78 0.94c-0.33,0.07 -0.51,0.24 -0.58,0.53 -0.02,0.13 0.05,1.02 0.09,1.06 0.02,0.03 2.46,-0.24 2.49,-0.28 0.01,-0.01 0,-0.14 0,-0.29l-0.03 -0.27 -0.21 0c-0.11,0 -0.31,0.01 -0.44,0.03l-0.24 0.03 -0.02 -0.15c-0.04,-0.25 -0.15,-0.48 -0.28,-0.57 -0.13,-0.1 -0.52,-0.14 -0.77,-0.08l-0.01 -0.01zm0.44 0.63c0,0 0.06,0.08 0.06,0.14 0.02,0.1 0,0.11 -0.23,0.13 -0.29,0.03 -0.31,0.02 -0.31,-0.11 0,-0.07 0.03,-0.12 0.1,-0.14 0.11,-0.05 0.32,-0.05 0.38,0l0 -0.02zm-0.88 1.37c0,0 0.08,-0.04 0.16,-0.06 0.31,-0.08 0.36,-0.06 0.41,0.15 0.02,0.11 0.06,0.19 0.07,0.19 0.01,0 0.29,-0.06 0.62,-0.13 0.19,-0.04 0.41,-0.09 0.6,-0.13l0 0c0,0 0,0 0,0l0 0c0,0 0,0 0,0l0 0c0,0 0,0 0,0l0 0c0.12,-0.03 0.23,-0.05 0.3,-0.06 0.17,-0.04 0.32,-0.06 0.35,-0.05 0.05,0.02 0.17,0.53 0.14,0.56 -0.01,0.01 -0.41,0.11 -0.89,0.21 -0.49,0.1 -0.91,0.2 -0.95,0.21 -0.06,0.02 -0.06,0.05 -0.03,0.22 0.05,0.23 0.03,0.25 -0.26,0.28 -0.22,0.03 -0.28,0.01 -0.28,-0.09 0,-0.04 -0.06,-0.34 -0.13,-0.68 -0.07,-0.34 -0.12,-0.62 -0.1,-0.63l-0.01 0.01zm2.08 1.21c-0.08,0.02 -0.07,0.12 0.03,0.44 0.04,0.13 0.07,0.15 0.21,0.17 0.16,0.02 0.21,0.08 0.12,0.16 -0.06,0.06 -1.13,0.39 -1.25,0.39 -0.15,0 -0.14,-0.12 0.02,-0.22 0.08,-0.05 0.14,-0.11 0.13,-0.14 0,-0.03 -0.05,-0.16 -0.09,-0.29 -0.04,-0.13 -0.08,-0.24 -0.09,-0.24 -0.06,0 -0.42,0.22 -0.5,0.31 -0.26,0.29 -0.15,0.91 0.21,1.14 0.2,0.12 0.39,0.11 1.07,-0.09 0.67,-0.2 0.83,-0.27 1,-0.46 0.11,-0.12 0.12,-0.16 0.12,-0.39 0,-0.33 -0.14,-0.61 -0.35,-0.72 -0.14,-0.07 -0.45,-0.09 -0.62,-0.05l-0.01 -0.01zm-0.82 3.06c0,0 0.29,-0.34 0.96,-0.92 0.52,-0.47 0.97,-0.85 0.99,-0.85 0.02,0 0.07,0.11 0.14,0.25l0.12 0.25 -0.12 0.13 -0.12 0.13 0.07 0.17 0 0c0.03,0.08 0.05,0.13 0.08,0.14 0.04,0.02 0.1,0 0.23,-0.03l0.02 0c0.08,-0.03 0.11,0 0.22,0.23 0.07,0.14 0.12,0.27 0.12,0.28 -0.01,0.02 -2.44,0.66 -2.48,0.66 -0.03,0 -0.22,-0.35 -0.24,-0.43l0.01 -0.01zm1.64 -0.57c0,0 -0.02,-0.07 -0.02,-0.08 0,-0.01 -0.02,-0.02 -0.05,-0.02 -0.06,0 -0.4,0.26 -0.38,0.28 0,0 0.11,-0.01 0.24,-0.05 0.17,-0.06 0.23,-0.09 0.21,-0.14l0 0.01zm21.17 -16.62l-0.92 0.9 0.18 0.2c0.1,0.11 0.2,0.2 0.23,0.21 0.02,0 0.35,-0.29 0.72,-0.64 0.37,-0.35 0.69,-0.65 0.72,-0.66 0.03,0 0.08,0.02 0.12,0.06 0.07,0.07 0.02,0.12 -0.65,0.77l-0.72 0.7 0.19 0.21c0.11,0.11 0.22,0.2 0.24,0.2 0.05,0 1.81,-1.71 1.81,-1.76 0,-0.03 -0.22,-0.28 -0.49,-0.57l-0.48 -0.52 -0.92 0.9 -0.03 0zm2.16 4.37c0.14,-0.1 1.03,-0.53 1.31,-0.63 0.38,-0.12 0.62,-0.03 0.81,0.3 0.14,0.25 0.18,0.4 0.14,0.59 -0.05,0.26 -0.27,0.44 -0.97,0.76 -0.55,0.25 -0.67,0.3 -0.88,0.3 -0.21,0 -0.24,-0.02 -0.35,-0.13 -0.16,-0.16 -0.28,-0.38 -0.31,-0.61 -0.03,-0.21 0.07,-0.44 0.25,-0.58l0 0zm1.65 0.12c0.04,-0.05 0.04,-0.08 0,-0.13 -0.02,-0.03 -0.07,-0.06 -0.1,-0.06 -0.09,0 -1.16,0.52 -1.21,0.58 -0.05,0.07 0,0.18 0.08,0.18 0.08,0 1.17,-0.52 1.22,-0.58l0.01 0.01zm-0.79 4.43c0,0 -0.03,0.16 -0.03,0.32l0 0.29 0.9 0 0.02 0.25c0.02,0.29 0.11,0.44 0.33,0.57 0.21,0.13 0.74,0.12 0.97,-0.02 0.26,-0.15 0.32,-0.29 0.34,-0.8 0,-0.24 0,-0.48 0,-0.54l-0.02 -0.11 -1.24 0c-0.68,0 -1.25,0.01 -1.26,0.03l-0.01 0.01zm1.96 0.71c0,0.11 -0.1,0.19 -0.27,0.19 -0.17,0 -0.27,-0.08 -0.27,-0.19 0,-0.1 0.01,-0.11 0.27,-0.11 0.26,0 0.27,0 0.27,0.11zm-2.55 4.75c0,0 -0.02,-0.12 0.03,-0.31 0.04,-0.14 0.09,-0.26 0.1,-0.26 0.01,0 0.44,0.13 0.95,0.28 0.51,0.15 0.94,0.27 0.94,0.26 0,0 0.03,-0.09 0.06,-0.2 0.03,-0.11 0.07,-0.18 0.12,-0.18 0.08,0 0.4,0.09 0.44,0.13 0.03,0.03 -0.32,1.35 -0.38,1.41 -0.02,0.02 -0.13,0 -0.26,-0.05 -0.24,-0.08 -0.26,-0.12 -0.19,-0.39l0.03 -0.11 -0.9 -0.27c-0.5,-0.15 -0.92,-0.29 -0.95,-0.32l0.01 0.01zm-8.12 -11.28c0,0 0.13,0.21 0.26,0.4 0.24,0.36 0.34,0.45 0.64,0.6l0.17 0.09 -0.02 0.22c-0.02,0.29 0.03,0.33 0.34,0.2l0.04 -0.02c0.13,-0.05 0.21,-0.09 0.29,-0.09 0.14,0 0.28,0.07 0.67,0.26l0.07 0.03 0.66 0.33 0.62 0c0.34,0 0.63,0 0.65,-0.03 0,-0.02 -0.16,-0.11 -0.37,-0.22 -1.07,-0.52 -1.36,-0.66 -1.66,-0.83l-0.32 -0.19 0.25 -0.2c0.14,-0.11 0.25,-0.22 0.25,-0.23 0,-0.02 -0.11,-0.05 -0.25,-0.06 -0.14,-0.02 -0.31,-0.06 -0.37,-0.09 -0.07,-0.03 -0.13,-0.06 -0.14,-0.06 0,0 -0.04,0.11 -0.07,0.24 -0.03,0.14 -0.06,0.26 -0.08,0.28 -0.02,0.02 -0.1,0 -0.19,-0.07 -0.36,-0.23 -0.98,-0.51 -1.35,-0.6 -0.09,-0.02 -0.11,-0.02 -0.09,0.03l0 0.01zm-0.52 2.67c0.12,-0.15 0.5,-0.29 0.95,-0.36 0.38,-0.06 0.93,0 1.08,0.08 0.07,0.04 0.24,0.21 0.39,0.36 0.33,0.35 0.53,0.46 0.74,0.43 0.08,-0.01 0.35,-0.11 0.6,-0.22 0.6,-0.26 0.91,-0.29 1.17,-0.11 0.29,0.2 0.98,0.84 1.03,0.98 0.07,0.18 0.04,0.66 -0.04,0.68 -0.04,0 -0.25,-0.15 -0.48,-0.36 -0.23,-0.2 -0.51,-0.43 -0.64,-0.5 -0.2,-0.11 -0.26,-0.13 -0.58,-0.13 -0.36,0 -0.74,0.11 -0.74,0.21 0,0.03 0.15,0.15 0.33,0.27 0.18,0.13 0.33,0.25 0.33,0.26 0,0.05 -0.27,0.12 -0.56,0.15 -0.36,0.03 -0.8,-0.07 -1.26,-0.31 -0.22,-0.11 -0.4,-0.22 -0.41,-0.25 0,-0.03 0.09,-0.08 0.2,-0.13 0.12,-0.05 0.22,-0.11 0.23,-0.13 0,-0.03 -0.07,-0.07 -0.17,-0.1 -0.16,-0.04 -0.3,-0.13 -0.85,-0.57 -0.14,-0.11 -0.16,-0.11 -0.7,-0.11 -0.58,0 -0.75,-0.04 -0.66,-0.15l0.04 0.01zm4.61 3.25c-0.26,0.07 -0.53,0.23 -0.9,0.55 -0.41,0.35 -0.57,0.44 -0.79,0.44 -0.19,0 -0.29,-0.06 -0.52,-0.27 -0.19,-0.18 -0.31,-0.19 -0.31,-0.04 0,0.13 0.42,0.49 0.63,0.55 0.33,0.1 0.59,0 1.11,-0.46 0.42,-0.36 0.65,-0.48 0.95,-0.5 0.31,-0.03 0.51,0.07 0.92,0.45 0.42,0.39 0.71,0.53 1.06,0.56 0.45,0.03 0.89,-0.2 0.69,-0.35 -0.07,-0.05 -0.1,-0.04 -0.26,0.03 -0.15,0.07 -0.25,0.08 -0.43,0.06 -0.31,-0.03 -0.55,-0.17 -0.97,-0.55 -0.46,-0.42 -0.8,-0.55 -1.19,-0.46l0.01 -0.01zm-0.74 2.19c0.25,-0.21 0.51,-0.36 0.73,-0.41 0.38,-0.1 0.8,0.06 1.26,0.49 0.5,0.46 0.91,0.61 1.29,0.47 0.16,-0.06 0.19,-0.06 0.24,-0.01 0.16,0.17 -0.2,0.35 -0.62,0.32 -0.34,-0.03 -0.66,-0.2 -1.06,-0.57 -0.45,-0.41 -0.69,-0.51 -1.05,-0.44 -0.18,0.04 -0.5,0.23 -0.79,0.47 -0.1,0.08 -0.12,0.08 -0.18,0.04 -0.1,-0.09 -0.07,-0.15 0.18,-0.36l0 0zm0.65 1.38c-0.26,0.09 -0.35,0.15 -0.35,0.25 0,0.12 0.1,0.14 0.28,0.07 0.43,-0.19 0.72,-0.11 1.18,0.3 0.4,0.37 0.7,0.55 0.99,0.62 0.21,0.05 0.24,0.04 0.3,-0.02 0.1,-0.11 0.04,-0.19 -0.16,-0.22 -0.29,-0.04 -0.57,-0.2 -0.9,-0.51 -0.17,-0.16 -0.4,-0.33 -0.51,-0.39 -0.24,-0.13 -0.6,-0.16 -0.83,-0.08l0 -0.02zm-0.27 2.02c0,-0.08 0.2,-0.26 0.41,-0.35 0.35,-0.16 0.64,-0.06 1.11,0.38 0.22,0.21 0.3,0.31 0.29,0.37 -0.02,0.16 -0.14,0.12 -0.44,-0.16 -0.49,-0.46 -0.63,-0.5 -1.02,-0.26 -0.24,0.15 -0.36,0.16 -0.36,0.02l0.01 0zm-15.25 -10.81c-0.31,0.1 -0.97,0.46 -0.97,0.53 0,0.06 0.22,0.07 0.9,0.03 0.39,-0.02 0.46,0.02 0.77,0.48 0.12,0.18 0.36,0.46 0.55,0.63 0.2,0.19 0.37,0.39 0.44,0.53 0.11,0.22 0.11,0.22 0.04,0.34 -0.04,0.06 -0.18,0.2 -0.31,0.29 -0.14,0.1 -0.25,0.2 -0.25,0.22 0,0.03 0.7,0 0.81,-0.05 0.03,0 0.22,0.14 0.42,0.32 0.38,0.35 0.5,0.42 0.45,0.25 -0.01,-0.05 -0.05,-0.22 -0.07,-0.37 -0.09,-0.5 0.06,-0.59 0.88,-0.59l0.47 0 0.41 0.32c0.22,0.18 0.46,0.35 0.53,0.38 0.25,0.14 0.17,-0.17 -0.17,-0.65 -0.09,-0.12 -0.19,-0.32 -0.24,-0.44l0 0c-0.05,-0.14 -0.08,-0.22 -0.14,-0.27 -0.1,-0.08 -0.27,-0.07 -0.71,-0.03l0 0c-0.33,0.03 -0.69,0.03 -0.78,0.02 -0.16,-0.03 -0.17,-0.04 -0.19,-0.21 -0.01,-0.1 -0.05,-0.21 -0.09,-0.25 -0.07,-0.07 -0.13,-0.06 -0.5,0.1 -0.09,0.04 -0.25,-0.12 -0.72,-0.74 -0.39,-0.52 -0.56,-0.69 -0.77,-0.8 -0.18,-0.09 -0.46,-0.1 -0.74,-0.01l-0.02 -0.03zm-1.11 5.82c0.39,-0.34 0.58,-0.46 0.86,-0.56 0.43,-0.15 0.8,-0.02 1.33,0.46 0.42,0.39 0.65,0.5 0.99,0.5 0.32,0 0.49,-0.1 0.89,-0.51 0.58,-0.61 1.07,-0.62 1.81,-0.04 0.17,0.14 0.25,0.22 0.25,0.29 0,0.15 -0.12,0.13 -0.36,-0.06 -0.43,-0.33 -0.73,-0.43 -1.06,-0.34 -0.12,0.04 -0.26,0.14 -0.52,0.39 -0.45,0.44 -0.7,0.56 -1.07,0.54 -0.35,-0.02 -0.7,-0.2 -1.09,-0.56 -0.38,-0.35 -0.56,-0.45 -0.84,-0.45 -0.3,0 -0.56,0.13 -0.98,0.5 -0.19,0.17 -0.43,0.34 -0.53,0.39 -0.22,0.11 -0.51,0.12 -0.72,0.02 -0.19,-0.09 -0.49,-0.4 -0.49,-0.5 0,-0.14 0.12,-0.14 0.28,0.02 0.24,0.23 0.34,0.29 0.54,0.29 0.22,0 0.35,-0.06 0.72,-0.39l-0.01 0.01zm0.96 1.19c-0.26,0.07 -0.58,0.26 -0.92,0.56 -0.38,0.34 -0.54,0.42 -0.77,0.42 -0.17,0 -0.28,-0.06 -0.52,-0.29 -0.1,-0.09 -0.17,-0.14 -0.22,-0.12 -0.11,0.05 -0.07,0.17 0.11,0.36 0.48,0.48 0.86,0.44 1.58,-0.18 0.41,-0.35 0.67,-0.48 0.96,-0.48 0.29,0 0.49,0.11 0.86,0.45 0.37,0.35 0.73,0.53 1.08,0.56 0.36,0.03 0.62,-0.1 1.07,-0.54 0.26,-0.25 0.4,-0.35 0.52,-0.39 0.33,-0.09 0.63,0.01 1.06,0.34 0.24,0.19 0.35,0.2 0.37,0.06 0,-0.07 -0.05,-0.14 -0.25,-0.29 -0.39,-0.3 -0.66,-0.42 -0.94,-0.42 -0.33,0 -0.56,0.12 -0.92,0.49 -0.38,0.39 -0.55,0.48 -0.88,0.48 -0.32,0 -0.58,-0.14 -0.98,-0.51 -0.46,-0.42 -0.86,-0.59 -1.22,-0.49l0.01 -0.01zm-0.98 2.37c0.36,-0.31 0.6,-0.47 0.83,-0.56 0.26,-0.1 0.64,-0.08 0.88,0.05 0.1,0.05 0.32,0.22 0.49,0.38 0.38,0.35 0.62,0.48 0.93,0.5 0.36,0.03 0.5,-0.04 0.91,-0.45 0.2,-0.2 0.45,-0.39 0.55,-0.44 0.36,-0.17 0.79,-0.07 1.28,0.31 0.29,0.23 0.38,0.38 0.24,0.43 -0.05,0.02 -0.16,-0.05 -0.34,-0.18 -0.34,-0.26 -0.54,-0.34 -0.8,-0.34 -0.27,0 -0.45,0.1 -0.78,0.43 -0.37,0.38 -0.63,0.51 -0.99,0.52 -0.36,0 -0.7,-0.17 -1.12,-0.55 -0.4,-0.37 -0.57,-0.46 -0.89,-0.46 -0.31,0 -0.53,0.11 -1,0.51 -0.52,0.45 -0.85,0.56 -1.19,0.42 -0.22,-0.09 -0.52,-0.39 -0.52,-0.51 0,-0.17 0.11,-0.16 0.3,0.03 0.19,0.18 0.38,0.29 0.54,0.29 0.14,0 0.41,-0.15 0.67,-0.39l0.01 0.01zm0.79 1.43c-0.09,0.03 -0.29,0.16 -0.45,0.28 -0.22,0.17 -0.28,0.23 -0.27,0.31 0.02,0.15 0.12,0.13 0.35,-0.06 0.29,-0.23 0.53,-0.34 0.78,-0.34 0.28,0 0.49,0.11 0.83,0.42 0.28,0.26 0.41,0.32 0.46,0.19 0.04,-0.09 -0.5,-0.61 -0.79,-0.76 -0.24,-0.12 -0.64,-0.14 -0.91,-0.04zm1.24 2.98c-0.24,-0.23 -0.26,-0.28 -0.18,-0.37l0 0c0.03,-0.04 0.17,0.04 0.42,0.25 0.32,0.27 0.61,0.37 1,0.37 0.39,0 0.69,-0.11 0.97,-0.37 0.17,-0.16 0.22,-0.19 0.28,-0.16 0.12,0.08 0.1,0.15 -0.1,0.34 -0.67,0.64 -1.7,0.61 -2.4,-0.07l0.01 0.01zm-4.19 6.23c-0.22,0.14 -0.26,0.29 -0.26,1.01 0,0.72 0.04,0.84 0.26,1 0.14,0.11 0.53,0.11 0.67,0.01 0.22,-0.14 0.25,-0.28 0.25,-1.02 0,-0.6 0,-0.7 -0.08,-0.81 -0.15,-0.26 -0.57,-0.35 -0.84,-0.18l0 -0.01zm0.42 0.45c0.05,0.14 0.02,1.06 -0.03,1.14 -0.12,0.16 -0.15,0.03 -0.15,-0.57 0,-0.32 0.01,-0.6 0.03,-0.61 0.05,-0.05 0.13,-0.03 0.15,0.04zm1.18 0.55c0,-0.74 0.03,-0.85 0.26,-1 0.17,-0.11 0.46,-0.11 0.64,0 0.15,0.09 0.26,0.31 0.26,0.51l0 0.13 -0.24 0c-0.22,-0.03 -0.24,-0.03 -0.26,-0.13 -0.01,-0.06 -0.05,-0.11 -0.08,-0.11 -0.05,0 -0.06,0.11 -0.06,0.62 0,0.51 0,0.62 0.06,0.62 0.04,0 0.07,-0.05 0.08,-0.13 0.02,-0.12 0.03,-0.13 0.25,-0.13l0.23 0 0 0.18c0,0.2 -0.1,0.36 -0.25,0.46 -0.13,0.09 -0.46,0.09 -0.63,0 -0.22,-0.12 -0.26,-0.28 -0.26,-1.03l0 0.01zm3.98 -1c-0.22,0.14 -0.26,0.29 -0.26,1.01 0,0.72 0.04,0.84 0.26,1 0.14,0.11 0.53,0.11 0.67,0.01 0.22,-0.14 0.25,-0.28 0.25,-1.02 0,-0.6 0,-0.7 -0.08,-0.81 -0.15,-0.26 -0.57,-0.35 -0.84,-0.18l0 -0.01zm0.42 0.45c0.05,0.14 0.02,1.06 -0.03,1.14 -0.12,0.16 -0.15,0.03 -0.15,-0.57 0,-0.32 0.01,-0.6 0.03,-0.61 0.05,-0.05 0.13,-0.03 0.15,0.04zm13.41 0.01c0,-0.15 0.13,-0.38 0.26,-0.47 0.07,-0.05 0.21,-0.08 0.31,-0.08 0.38,0 0.59,0.22 0.59,0.61 0,0.22 -0.07,0.39 -0.35,0.79l-0.19 0.28 0.27 0c0,0 0.27,0.03 0.27,0.03l0 0.22c0,0 -0.02,0.22 -0.02,0.22l-0.55 0c0,0 -0.55,0.03 -0.55,0.03l0 -0.24c0,-0.22 0.02,-0.26 0.31,-0.72 0.26,-0.4 0.31,-0.51 0.3,-0.62 -0.02,-0.17 -0.1,-0.21 -0.16,-0.06 -0.04,0.1 -0.06,0.11 -0.27,0.11 -0.21,0 -0.23,0 -0.23,-0.09l0.01 -0.01zm2.16 -0.46c-0.16,0.1 -0.25,0.23 -0.27,0.4 0,0.05 0,0.08 0,0.1 0.02,0.03 0.08,0.03 0.22,0.04 0.22,0.01 0.24,0 0.25,-0.08 0.02,-0.15 0.17,-0.13 0.19,0.02 0.01,0.09 -0.06,0.24 -0.32,0.65 -0.32,0.49 -0.34,0.53 -0.32,0.73l0 0.21 1.13 0 0 -0.12c0.02,-0.06 0.02,-0.17 0,-0.22 -0.02,-0.09 -0.05,-0.1 -0.29,-0.1l-0.27 0 0.23 -0.34c0.3,-0.44 0.37,-0.61 0.34,-0.85 -0.01,-0.11 -0.05,-0.23 -0.09,-0.29 -0.14,-0.21 -0.55,-0.29 -0.79,-0.14l-0.01 -0.01zm-18.15 1.06c0,-0.55 0,-1.02 0,-1.05 0.02,-0.03 0.1,-0.06 0.25,-0.06l0.23 0 0 0.4c0,0.29 0,0.37 0.04,0.39 0.02,0 0.04,0 0.07,0 0.03,0 0.05,0 0.07,0 0.04,-0.02 0.04,-0.11 0.04,-0.39l0 -0.4 0.5 0 0 1.05c0,0 -0.02,1.05 -0.02,1.05l-0.46 0 0 -0.39c0,0 -0.01,0 -0.01,0 -0.01,-0.38 -0.01,-0.39 -0.11,-0.39 -0.1,0 -0.1,0 -0.1,0.4l0 0.41 -0.24 0c0,0 -0.24,-0.03 -0.24,-0.03l0 -1 -0.02 0.01zm3.75 -0.06l0 1.05c0,0 0.4,0.01 0.4,0.01 0.48,0.01 0.65,-0.05 0.76,-0.31 0.11,-0.24 0.1,-0.45 -0.02,-0.63 -0.1,-0.14 -0.1,-0.15 -0.02,-0.24 0.11,-0.14 0.11,-0.53 0,-0.72 -0.11,-0.19 -0.22,-0.22 -0.71,-0.22l-0.41 0 0 1.05 0 0.01zm0.69 -0.4c0,0.15 -0.03,0.19 -0.1,0.2 -0.09,0.01 -0.1,0 -0.1,-0.18 0,-0.18 0,-0.2 0.11,-0.2 0.11,0 0.1,0.01 0.09,0.18zm0.03 0.73c0.04,0.16 -0.02,0.28 -0.13,0.28 -0.09,0 -0.1,-0.02 -0.1,-0.19 0,-0.17 0,-0.19 0.1,-0.19 0.07,0 0.11,0.03 0.13,0.1l0 0zm1.09 0.68c0,-0.06 0.39,-1.87 0.43,-2 0.01,-0.04 0.09,-0.05 0.24,-0.04l0.22 0c0,0 0.23,1.03 0.23,1.03 0.13,0.56 0.23,1.03 0.22,1.05 0,0.02 -0.11,0.03 -0.22,0.03 -0.19,0 -0.21,0 -0.25,-0.13 -0.04,-0.11 -0.07,-0.13 -0.2,-0.13 -0.14,0 -0.16,0.01 -0.19,0.13 -0.02,0.12 -0.04,0.13 -0.25,0.13 -0.18,0 -0.22,-0.01 -0.22,-0.07l-0.01 0zm0.73 -0.75c-0.01,-0.05 -0.02,-0.14 -0.02,-0.19 0,-0.05 -0.02,-0.09 -0.04,-0.09 -0.02,0 -0.04,0.04 -0.04,0.09 0,0.06 -0.01,0.14 -0.02,0.19 -0.02,0.08 0,0.1 0.07,0.1 0.07,0 0.09,-0.02 0.07,-0.1l-0.02 0zm1.27 -0.25l0 1.05 0.47 0 0 -0.39c0,0 0.01,0 0.01,0 0.01,-0.38 0.01,-0.39 0.11,-0.39 0.1,0 0.1,0 0.1,0.4l0 0.41 0.24 0c0,0 0.24,-0.03 0.24,-0.03l0 -1.05c0,0 0.02,-1.05 0.02,-1.05l-0.5 0 0 0.4c0,0.29 0,0.37 -0.04,0.39 -0.02,0 -0.04,0 -0.07,0 -0.03,0 -0.05,0 -0.07,0 -0.04,-0.02 -0.04,-0.11 -0.04,-0.39l0 -0.4 -0.5 0 0 1.05 0.03 0zm2.37 1.05l0 -1.05c0,0 -0.02,-1.05 -0.02,-1.05l0.41 0c0.48,0 0.6,0.03 0.71,0.22 0.1,0.17 0.1,0.63 -0.01,0.74 -0.06,0.06 -0.06,0.08 0.01,0.18 0.21,0.28 0.11,0.76 -0.18,0.91 -0.12,0.06 -0.24,0.07 -0.53,0.06l-0.38 0 -0.01 -0.01zm0.53 -1.25c0.11,0 0.16,-0.08 0.14,-0.22 0,-0.11 -0.03,-0.15 -0.1,-0.16 -0.09,-0.01 -0.1,0 -0.1,0.18 0,0.13 0.02,0.2 0.05,0.2l0.01 0zm0.05 0.81c0.12,0 0.17,-0.12 0.13,-0.28 -0.02,-0.07 -0.05,-0.1 -0.13,-0.1 -0.1,0 -0.1,0.02 -0.1,0.19 0,0.17 0,0.19 0.1,0.19l0 0zm1.82 -1.63c0,0 -0.03,0.11 -0.03,0.21 0,0.18 0.04,0.23 0.21,0.23 0.07,0 0.08,0.04 0.08,0.59l0 0.59 -0.29 0 0 0.47 1.08 0 0 -0.47 -0.29 0 0 -1.65 -0.36 0c-0.2,0 -0.38,0.01 -0.39,0.03l-0.01 0zm1.79 0.7l0 -0.73 1.16 0 0 0.22c0,0.17 -0.07,0.45 -0.27,1.06l-0.27 0.84 -0.24 0c-0.13,0 -0.24,-0.02 -0.24,-0.03 0,-0.01 0.1,-0.34 0.22,-0.71 0.3,-0.91 0.3,-0.91 0.2,-0.91 -0.06,0 -0.09,0.03 -0.1,0.11 -0.01,0.11 -0.03,0.12 -0.23,0.13l-0.22 0 -0.01 0.02z"></path>
   </g>
  </g>

  <g>
   <path class="fil2" d="M41.25 8.3l-4.57 14.62 1.55 0 1.2 -3.97 4.94 0 1.2 3.97 1.56 0 -4.57 -14.62 -1.31 0zm-1.38 9.2l2.04 -6.74 2.04 6.74 -4.07 0 -0.01 0z"></path>
   <path class="fil2" d="M49.43 12.1c0.14,-0.54 0.35,-1.01 0.61,-1.39 0.27,-0.38 0.6,-0.66 0.98,-0.86 0.39,-0.2 0.84,-0.3 1.34,-0.3 0.62,0 1.15,0.11 1.56,0.34 0.41,0.21 0.73,0.57 0.96,1.05 0.24,0.5 0.39,1.18 0.44,2.02l0 0.19 1.52 0 0 -0.21c-0.08,-1.1 -0.3,-2.01 -0.67,-2.72 -0.37,-0.72 -0.89,-1.26 -1.53,-1.6 -0.64,-0.34 -1.4,-0.51 -2.28,-0.51 -0.72,0 -1.37,0.14 -1.95,0.41 -0.57,0.27 -1.07,0.68 -1.47,1.2 -0.4,0.51 -0.71,1.14 -0.92,1.88 -0.2,0.71 -0.31,1.53 -0.31,2.44l0 3.05c0,0.92 0.1,1.76 0.31,2.5 0.21,0.73 0.52,1.37 0.91,1.89 0.4,0.53 0.89,0.94 1.45,1.22 0.56,0.28 1.2,0.42 1.89,0.42 0.91,0 1.7,-0.18 2.35,-0.52 0.66,-0.35 1.18,-0.89 1.55,-1.61 0.36,-0.71 0.58,-1.61 0.65,-2.7l0 -0.21c0,0 -1.49,0 -1.49,0l0 0.19c-0.07,0.88 -0.23,1.59 -0.46,2.08 -0.23,0.48 -0.55,0.82 -0.96,1.02 -0.43,0.21 -0.97,0.31 -1.63,0.31 -0.49,0 -0.94,-0.1 -1.31,-0.31 -0.37,-0.21 -0.69,-0.52 -0.95,-0.91 -0.26,-0.4 -0.45,-0.88 -0.59,-1.45 -0.14,-0.57 -0.21,-1.22 -0.21,-1.93l0 -3.07c0,-0.72 0.07,-1.36 0.21,-1.92l0 0.01z"></path>
   <polygon class="fil2" points="57.24,9.75 61.2,9.75 61.2,22.93 62.69,22.93 62.69,9.75 66.67,9.75 66.67,8.3 57.24,8.3 "></polygon>
   <path class="fil2" d="M76.38 12.75c0,-0.86 -0.16,-1.63 -0.47,-2.3 -0.32,-0.67 -0.8,-1.21 -1.42,-1.58 -0.62,-0.38 -1.39,-0.57 -2.28,-0.57l-4.25 0 0 14.62 1.49 0 0 -5.78 2.76 0c0.9,0 1.66,-0.18 2.28,-0.52 0.63,-0.35 1.11,-0.86 1.43,-1.53 0.31,-0.66 0.47,-1.45 0.47,-2.35l-0.01 0.01zm-6.94 -3l2.76 0c0.64,0 1.16,0.14 1.55,0.41 0.39,0.27 0.67,0.63 0.85,1.08 0.19,0.46 0.28,0.97 0.28,1.51 0,0.54 -0.09,1.07 -0.28,1.52 -0.18,0.43 -0.46,0.78 -0.85,1.03 -0.39,0.25 -0.91,0.38 -1.55,0.38l-2.76 0 0 -5.94 0 0.01z"></path>
   <path class="fil2" d="M84.22 22.93l3.2 0 3.21 -5.96 3.14 5.85 0.06 0.11 3.19 0 1.2 -3.97 4.94 0 1.2 3.97 1.56 0 -4.54 -14.48 -0.04 -0.14 -1.31 0 -4.52 14.48 -3.99 -7.28 3.95 -7.2 -1.76 0 -3.08 5.76 -3.04 -5.66 -0.06 -0.11 -1.75 0 3.96 7.2 -4.01 7.28 -4.48 -14.34 -0.04 -0.14 -1.31 0 -4.56 14.62 1.54 0 1.2 -3.97 4.95 0 1.19 3.97 0 0.01zm14.44 -5.43l2.03 -6.74 2.04 6.74 -4.06 0 -0.01 0zm-20.14 0l2.04 -6.74 2.04 6.74 -4.07 0 -0.01 0z"></path>
   <polygon class="fil2" points="108.45,16.12 114.6,16.12 114.6,22.93 116.1,22.93 116.1,8.3 114.6,8.3 114.6,14.66 108.45,14.66 108.45,8.3 106.96,8.3 106.96,22.93 108.45,22.93 "></polygon>
   <path class="fil2" d="M125.72 18.27c-0.06,0.88 -0.21,1.59 -0.45,2.08 -0.23,0.48 -0.55,0.82 -0.96,1.02 -0.41,0.21 -0.96,0.31 -1.62,0.31 -0.5,0 -0.95,-0.1 -1.32,-0.31 -0.37,-0.21 -0.69,-0.52 -0.95,-0.91 -0.26,-0.4 -0.45,-0.88 -0.59,-1.45 -0.14,-0.57 -0.21,-1.22 -0.21,-1.93l0 -3.07c0,-0.72 0.07,-1.36 0.22,-1.92 0.14,-0.54 0.34,-1.01 0.61,-1.39 0.27,-0.38 0.59,-0.66 0.98,-0.86 0.39,-0.2 0.84,-0.3 1.35,-0.3 0.62,0 1.15,0.11 1.55,0.34 0.41,0.21 0.73,0.57 0.96,1.05 0.24,0.5 0.39,1.18 0.44,2.02l0 0.19 1.52 0 0 -0.21c-0.08,-1.1 -0.3,-2.02 -0.67,-2.72 -0.37,-0.72 -0.88,-1.26 -1.53,-1.6 -0.63,-0.34 -1.39,-0.51 -2.27,-0.51 -0.72,0 -1.38,0.14 -1.96,0.41 -0.57,0.27 -1.07,0.68 -1.47,1.2 -0.4,0.51 -0.71,1.14 -0.92,1.88 -0.2,0.71 -0.31,1.53 -0.31,2.44l0 3.05c0,0.92 0.1,1.76 0.31,2.5 0.21,0.73 0.52,1.37 0.91,1.89 0.4,0.53 0.89,0.94 1.45,1.22 0.56,0.28 1.2,0.42 1.91,0.42 0.91,0 1.69,-0.18 2.34,-0.52 0.66,-0.35 1.18,-0.89 1.55,-1.61 0.36,-0.71 0.58,-1.61 0.65,-2.7l0 -0.21c0,0 -1.49,0 -1.49,0l0 0.19 -0.03 0.01z"></path>
   <polygon class="fil2" points="138.03,8.3 136.16,8.3 131.71,14.8 130.53,14.8 130.53,8.3 129.01,8.3 129.01,22.93 130.53,22.93 130.53,16.26 131.8,16.26 136.47,22.84 136.53,22.93 138.38,22.93 133.11,15.48 "></polygon>
   <polygon class="fil2" points="140.86,19.81 140.86,8.3 139.37,8.3 139.37,22.93 140.78,22.93 146.97,11.4 146.97,22.93 148.46,22.93 148.46,8.3 147.05,8.3 "></polygon>
   <path class="fil2" d="M155.52 7.72c0.6,0 1.13,-0.12 1.56,-0.35 0.45,-0.23 0.8,-0.56 1.04,-0.97 0.24,-0.41 0.36,-0.89 0.36,-1.42l0 -0.2 -1.39 0 0 0.2c0,0.41 -0.12,0.75 -0.37,1.04 -0.24,0.28 -0.65,0.42 -1.22,0.42 -0.58,0 -1,-0.14 -1.23,-0.41 -0.24,-0.3 -0.36,-0.64 -0.36,-1.05l0 -0.2 -1.39 0 0 0.2c0,0.8 0.27,1.46 0.8,1.97 0.53,0.5 1.27,0.76 2.18,0.76l0.02 0.01z"></path>
   <polygon class="fil2" points="158.59,8.3 152.4,19.81 152.4,8.3 150.9,8.3 150.9,22.93 152.32,22.93 158.51,11.4 158.51,22.93 160,22.93 160,8.3 "></polygon>
   <polygon class="fil2" points="79.33,45.93 80.85,45.93 80.85,32.76 86.91,32.76 86.91,45.93 88.42,45.93 88.42,31.31 79.33,31.31 "></polygon>
   <path class="fil2" d="M98.59 32.67c-0.41,-0.51 -0.91,-0.89 -1.49,-1.15 -0.58,-0.27 -1.24,-0.4 -1.97,-0.4 -0.73,0 -1.37,0.13 -1.95,0.4 -0.58,0.26 -1.09,0.65 -1.5,1.15 -0.41,0.5 -0.72,1.13 -0.94,1.88 -0.22,0.74 -0.33,1.59 -0.33,2.54l0 3.08c0,0.95 0.11,1.8 0.33,2.54 0.22,0.74 0.55,1.36 0.96,1.87 0.41,0.51 0.91,0.91 1.5,1.17 0.58,0.26 1.23,0.39 1.94,0.39 0.71,0 1.38,-0.13 1.96,-0.39 0.58,-0.26 1.09,-0.66 1.49,-1.17 0.41,-0.51 0.73,-1.13 0.94,-1.87 0.22,-0.74 0.33,-1.59 0.33,-2.54l0 -3.08c0,-0.95 -0.11,-1.8 -0.33,-2.54 -0.21,-0.75 -0.53,-1.38 -0.94,-1.88zm-0.23 4.4l0 3.1c0,0.76 -0.07,1.44 -0.21,2 -0.14,0.55 -0.35,1.02 -0.62,1.4 -0.27,0.36 -0.6,0.63 -1,0.81 -0.39,0.18 -0.86,0.28 -1.39,0.28 -0.53,0 -0.97,-0.09 -1.37,-0.28 -0.39,-0.18 -0.73,-0.45 -1,-0.81 -0.28,-0.38 -0.5,-0.85 -0.65,-1.4 -0.15,-0.57 -0.22,-1.24 -0.22,-2l0 -3.1c0,-0.76 0.08,-1.41 0.22,-1.97 0.15,-0.56 0.36,-1.03 0.63,-1.4 0.27,-0.37 0.61,-0.65 1,-0.83 0.4,-0.18 0.86,-0.27 1.37,-0.27 0.51,0 1,0.09 1.4,0.27 0.4,0.18 0.73,0.46 1,0.82 0.27,0.37 0.48,0.84 0.62,1.4 0.15,0.57 0.22,1.23 0.22,1.98l0 0z"></path>
   <path class="fil2" d="M108.33 31.88c-0.61,-0.38 -1.38,-0.57 -2.27,-0.57l-4.26 0 0 14.62 1.5 0 0 -5.78 2.76 0c0.9,0 1.66,-0.18 2.27,-0.52 0.63,-0.35 1.11,-0.86 1.43,-1.52 0.32,-0.66 0.48,-1.44 0.48,-2.34 0,-0.91 -0.16,-1.65 -0.48,-2.31 -0.32,-0.67 -0.79,-1.2 -1.42,-1.58l-0.01 0zm-5.03 0.88l2.76 0c0.64,0 1.16,0.14 1.55,0.41 0.38,0.27 0.66,0.63 0.84,1.08 0.19,0.47 0.28,0.98 0.28,1.52 0,0.53 -0.09,1.06 -0.28,1.51 -0.18,0.43 -0.46,0.78 -0.84,1.03 -0.39,0.25 -0.91,0.38 -1.55,0.38l-2.76 0 0 -5.94 0 0.01z"></path>
   <polygon class="fil2" points="110.75,32.76 114.72,32.76 114.72,45.93 116.21,45.93 116.21,32.76 120.18,32.76 120.18,31.31 110.75,31.31 "></polygon>
  </g>
 </g>
</svg>